
<svg width="854" height="881" viewBox="0 0 854 881" fill="none" xmlns="http://www.w3.org/2000/svg">
  <circle cx="427" cy="440.5" r="300" fill="url(#paint0_radial)" />
  <path d="M427 240C487.373 240 537 289.627 537 350C537 410.373 487.373 460 427 460C366.627 460 317 410.373 317 350C317 289.627 366.627 240 427 240Z" fill="url(#paint1_linear)" />
  <path d="M427 640C487.373 640 537 689.627 537 750C537 810.373 487.373 860 427 860C366.627 860 317 810.373 317 750C317 689.627 366.627 640 427 640Z" fill="url(#paint2_linear)" />
  <path d="M107 640C167.373 640 217 689.627 217 750C217 810.373 167.373 860 107 860C46.6274 860 -3 810.373 -3 750C-3 689.627 46.6274 640 107 640Z" fill="url(#paint3_linear)" />
  <path d="M747 640C807.373 640 857 689.627 857 750C857 810.373 807.373 860 747 860C686.627 860 637 810.373 637 750C637 689.627 686.627 640 747 640Z" fill="url(#paint4_linear)" />
  <defs>
    <radialGradient id="paint0_radial" cx="0" cy="0" r="1" gradientUnits="userSpaceOnUse" gradientTransform="translate(427 440.5) rotate(90) scale(300)">
      <stop stop-color="#FF007F"/>
      <stop offset="1" stop-color="#D700FF"/>
    </radialGradient>
    <linearGradient id="paint1_linear" x1="427" y1="240" x2="427" y2="460" gradientUnits="userSpaceOnUse">
      <stop stop-color="#FF66B2"/>
      <stop offset="1" stop-color="#D7B2FF"/>
    </linearGradient>
    <linearGradient id="paint2_linear" x1="427" y1="640" x2="427" y2="860" gradientUnits="userSpaceOnUse">
      <stop stop-color="#FF66B2"/>
      <stop offset="1" stop-color="#D7B2FF"/>
    </linearGradient>
    <linearGradient id="paint3_linear" x1="107" y1="640" x2="107" y2="860" gradientUnits="userSpaceOnUse">
      <stop stop-color="#FF66B2"/>
      <stop offset="1" stop-color="#D7B2FF"/>
    </linearGradient>
    <linearGradient id="paint4_linear" x1="747" y1="640" x2="747" y2="860" gradientUnits="userSpaceOnUse">
      <stop stop-color="#FF66B2"/>
      <stop offset="1" stop-color="#D7B2FF"/>
    </linearGradient>
  </defs>
</svg>



